<mxfile host="65bd71144e">
    <diagram id="P_h6OB97SORB3cJdvcWc" name="Page-1">
        <mxGraphModel dx="318" dy="264" grid="1" gridSize="10" guides="1" tooltips="1" connect="1" arrows="1" fold="1" page="1" pageScale="1" pageWidth="827" pageHeight="1169" math="0" shadow="0">
            <root>
                <mxCell id="0"/>
                <mxCell id="1" parent="0"/>
                <mxCell id="13" value="" style="rounded=0;whiteSpace=wrap;html=1;" vertex="1" parent="1">
                    <mxGeometry x="20" y="50" width="370" height="230" as="geometry"/>
                </mxCell>
                <mxCell id="2" value="Turnstille" style="fontStyle=0;html=1;whiteSpace=wrap;" vertex="1" parent="1">
                    <mxGeometry x="120" y="80" width="160" height="40" as="geometry"/>
                </mxCell>
                <mxCell id="3" value="Coin Acceptor" style="fontStyle=0;html=1;whiteSpace=wrap;" vertex="1" parent="1">
                    <mxGeometry x="40" y="200" width="90" height="40" as="geometry"/>
                </mxCell>
                <mxCell id="4" value="" style="endArrow=open;html=1;endSize=12;startArrow=diamondThin;startSize=14;startFill=0;edgeStyle=orthogonalEdgeStyle;align=left;verticalAlign=bottom;entryX=0.5;entryY=0;entryDx=0;entryDy=0;exitX=0.25;exitY=1;exitDx=0;exitDy=0;" edge="1" parent="1" source="2" target="3">
                    <mxGeometry x="0.4074" y="-43" relative="1" as="geometry">
                        <mxPoint x="140" y="120" as="sourcePoint"/>
                        <mxPoint x="330" y="120" as="targetPoint"/>
                        <Array as="points">
                            <mxPoint x="160" y="160"/>
                            <mxPoint x="85" y="160"/>
                        </Array>
                        <mxPoint x="28" y="-40" as="offset"/>
                    </mxGeometry>
                </mxCell>
                <mxCell id="5" value="&lt;div&gt;Barrier Arms&lt;/div&gt;" style="fontStyle=0;html=1;whiteSpace=wrap;" vertex="1" parent="1">
                    <mxGeometry x="160" y="200" width="90" height="40" as="geometry"/>
                </mxCell>
                <mxCell id="6" value="Status-Indicator" style="fontStyle=0;html=1;whiteSpace=wrap;" vertex="1" parent="1">
                    <mxGeometry x="280" y="200" width="90" height="40" as="geometry"/>
                </mxCell>
                <mxCell id="7" value="" style="endArrow=open;html=1;endSize=12;startArrow=diamondThin;startSize=14;startFill=0;edgeStyle=orthogonalEdgeStyle;align=left;verticalAlign=bottom;entryX=0.55;entryY=-0.062;entryDx=0;entryDy=0;entryPerimeter=0;" edge="1" parent="1" target="6">
                    <mxGeometry x="0.4074" y="-43" relative="1" as="geometry">
                        <mxPoint x="240" y="120" as="sourcePoint"/>
                        <mxPoint x="330" y="192" as="targetPoint"/>
                        <Array as="points">
                            <mxPoint x="240" y="160"/>
                            <mxPoint x="330" y="160"/>
                            <mxPoint x="330" y="170"/>
                            <mxPoint x="330" y="170"/>
                        </Array>
                        <mxPoint x="28" y="-40" as="offset"/>
                    </mxGeometry>
                </mxCell>
                <mxCell id="8" value="" style="endArrow=open;html=1;endSize=12;startArrow=diamondThin;startSize=14;startFill=0;edgeStyle=orthogonalEdgeStyle;align=left;verticalAlign=bottom;entryX=0.439;entryY=0;entryDx=0;entryDy=0;entryPerimeter=0;" edge="1" parent="1">
                    <mxGeometry relative="1" as="geometry">
                        <mxPoint x="205" y="120" as="sourcePoint"/>
                        <mxPoint x="204.51" y="199" as="targetPoint"/>
                    </mxGeometry>
                </mxCell>
            </root>
        </mxGraphModel>
    </diagram>
</mxfile>